<svg xmlns="http://www.w3.org/2000/svg" xmlns:xlink="http://www.w3.org/1999/xlink" xmlns:lucid="lucid" width="1640" height="1261"><g transform="translate(-60 -39)" lucid:page-tab-id="0_0"><path d="M0 0h1760v1360H0z" fill="#fff"/><path d="M80 60h130v20l-10 10H80z" fill="#fff"/><path d="M210 60v20l-10 10H80" stroke="#000" stroke-width="2" fill="none"/><path d="M80 60h1600v280H80z" stroke="#000" stroke-width="2" fill="none"/><use xlink:href="#a" transform="matrix(1,0,0,1,88,60) translate(0 21.511111111111106)"/><path d="M140 109.4h320v181.2H140z" stroke="#000" stroke-width="2" fill-opacity="0"/><use xlink:href="#b" transform="matrix(1,0,0,1,148,117.41176470588236) translate(152 30.80000000000004)"/><use xlink:href="#c" transform="matrix(1,0,0,1,148,117.41176470588236) translate(74.04722222222242 76.39999999999992)"/><use xlink:href="#d" transform="matrix(1,0,0,1,148,117.41176470588236) translate(166.72499999999997 76.39999999999992)"/><path d="M530 109.4h320v181.2H530z" stroke="#000" stroke-width="2" fill-opacity="0"/><use xlink:href="#e" transform="matrix(1,0,0,1,538,117.41176470588236) translate(152 30.800000000000015)"/><use xlink:href="#f" transform="matrix(1,0,0,1,538,117.41176470588236) translate(41.48333333333345 76.39999999999998)"/><path d="M1310 109.4h320v181.2h-320z" stroke="#000" stroke-width="2" fill-opacity="0"/><use xlink:href="#g" transform="matrix(1,0,0,1,1318,117.41176470588236) translate(152 14.500000000000009)"/><use xlink:href="#h" transform="matrix(1,0,0,1,1318,117.41176470588236) translate(152 36.10000000000001)"/><use xlink:href="#i" transform="matrix(1,0,0,1,1318,117.41176470588236) translate(4.538888888888948 73.69999999999999)"/><use xlink:href="#j" transform="matrix(1,0,0,1,1318,117.41176470588236) translate(122.65555555555554 73.69999999999999)"/><path d="M920 109.4h320v181.2H920z" stroke="#000" stroke-width="2" fill-opacity="0"/><use xlink:href="#k" transform="matrix(1,0,0,1,928,117.41176470588236) translate(152 30.800000000000004)"/><use xlink:href="#l" transform="matrix(1,0,0,1,928,117.41176470588236) translate(54.15000000000006 76.39999999999998)"/><use xlink:href="#m" transform="matrix(1,0,0,1,928,117.41176470588236) translate(169.83888888888887 76.39999999999998)"/><path d="M80 400h245v20l-10 10H80z" fill="#fff"/><path d="M325 400v20l-10 10H80" stroke="#000" stroke-width="2" fill="none"/><path d="M80 400h1600v580H80z" stroke="#000" stroke-width="2" fill="none"/><use xlink:href="#n" transform="matrix(1,0,0,1,88,399.99999999999994) translate(0 21.511111111111106)"/><use xlink:href="#o" transform="matrix(1,0,0,1,88,399.99999999999994) translate(65.579012345679 21.511111111111106)"/><path d="M140 527.27V480h420v47.27z" stroke="#000" stroke-width="2" fill="#fff"/><path d="M560 527.27v376.8H140v-376.8z" stroke="#000" stroke-width="2" fill="none"/><use xlink:href="#p" transform="matrix(1,0,0,1,140,480.00000000000006) translate(159.2845679012346 29.377777777777776)"/><path d="M992.5 488.63H1460v72.74H992.5zM776.25 509.1l115 80.9-115 80.9-115-80.9zM992.5 598.63H1460v72.74H992.5zM992.5 708.63H1460v72.74H992.5zM992.5 818.63H1460v72.74H992.5zM776.25 709.1l115 80.9-115 80.9-115-80.9z" stroke="#000" stroke-width="2" fill-opacity="0"/><path d="M80 1040h130v20l-10 10H80z" fill="#fff"/><path d="M210 1040v20l-10 10H80" stroke="#000" stroke-width="2" fill="none"/><path d="M80 1040h1600v240H80z" stroke="#000" stroke-width="2" fill="none"/><use xlink:href="#q" transform="matrix(1,0,0,1,88,1040) translate(0 21.511111111111106)"/><path d="M130 1101.85h180v134.3H130zM350 1101.85h180v134.3H350zM570 1101.85h180v134.3H570zM790 1101.85h180v134.3H790zM1010 1100h180v134.3h-180zM1230 1100h180v134.3h-180zM1450 1100h180v134.3h-180z" stroke="#000" stroke-width="2" fill-opacity="0"/><path d="M880 342v1.87m0 7.46v3.74m0 7.46v3.74m0 7.46v3.74m0 7.46v3.74m0 7.46V398" stroke="#000" stroke-width="2" fill="none"/><path d="M881 342.03h-2V341h2zM881 399h-2v-1.03h2z" stroke="#000" stroke-width=".05"/><path d="M1500 460.8h80v458.4h-80z" fill="none"/><path d="M1500 919.2c5.52 0 10-4.47 10-10V700c0-5.52 4.48-10 10-10-5.52 0-10-4.48-10-10V470.8c0-5.53-4.48-10-10-10" stroke="#000" stroke-width="2" fill="none"/><use xlink:href="#r" transform="matrix(1,0,0,1,1535,465.79583333333335) translate(0 213.74444444444447)"/><use xlink:href="#s" transform="matrix(1,0,0,1,1535,465.79583333333335) translate(0 246.01111111111112)"/><path d="M643.08 791.46H560v-200h83.08" stroke="#000" stroke-width="2" fill="none"/><path d="M658.35 791.46l-14.27 4.63v-9.28zM658.35 591.46l-14.27 4.63v-9.28z" stroke="#000" stroke-width="2"/><path d="M777.25 706.88c0 .55-.45 1-1 1s-1-.45-1-1 .45-1 1-1 1 .45 1 1zm0-4.22c0 .55-.45 1-1 1s-1-.45-1-1 .45-1 1-1 1 .45 1 1zm0-4.22c0 .55-.45 1-1 1s-1-.45-1-1 .45-1 1-1 1 .45 1 1zm0-4.22c0 .55-.45 1-1 1s-1-.45-1-1 .45-1 1-1 1 .45 1 1zm0-4.22c0 .55-.45 1-1 1s-1-.45-1-1 .45-1 1-1 1 .45 1 1zm0-4.22c0 .55-.45 1-1 1s-1-.45-1-1 .45-1 1-1 1 .45 1 1zm0-4.22c0 .55-.45 1-1 1s-1-.45-1-1 .45-1 1-1 1 .45 1 1zm0-4.22c0 .55-.45 1-1 1s-1-.45-1-1 .45-1 1-1 1 .45 1 1z"/><path d="M777.25 708.58l-1-.7-1 .7v-1.73h2zM777.25 673.15h-2v-1.73l1 .7 1-.7z" stroke="#000" stroke-width=".05"/><path d="M894 590h56v-65h23" stroke="#000" stroke-width="2" fill="none"/><path d="M894 591h-2.43l1.42-1-1.43-1H894z" stroke="#000" stroke-width=".05"/><path d="M988.26 525L974 529.64v-9.28z" stroke="#000" stroke-width="2"/><path d="M894 590h56v45h23" stroke="#000" stroke-width="2" fill="none"/><path d="M894 591h-2.43l1.42-1-1.43-1H894z" stroke="#000" stroke-width=".05"/><path d="M988.26 635L974 639.64v-9.28z" stroke="#000" stroke-width="2"/><path d="M894 590h56v155h23" stroke="#000" stroke-width="2" fill="none"/><path d="M894 591h-2.43l1.42-1-1.43-1H894z" stroke="#000" stroke-width=".05"/><path d="M988.26 745L974 749.64v-9.28z" stroke="#000" stroke-width="2"/><path d="M894 590h36v265h43" stroke="#000" stroke-width="2" fill="none"/><path d="M894 591h-2.43l1.42-1-1.43-1H894z" stroke="#000" stroke-width=".05"/><path d="M988.26 855L974 859.64v-9.28z" stroke="#000" stroke-width="2"/><path d="M880 982v2.8m0 3.73v5.6m0 3.74v5.6m0 3.73v5.6m0 3.73v5.6m0 3.74v5.6m0 3.73v2.8" stroke="#000" stroke-width="2" fill="none"/><path d="M881 982.03h-2V981h2zM881 1039h-2v-1.03h2z" stroke="#000" stroke-width=".05"/><path d="M180 557.27h340v88.63H180z" stroke="#000" stroke-width="2" fill="#fff"/><use xlink:href="#t" transform="matrix(1,0,0,1,192,569.2666666666665) translate(109.48796296296297 37.761111111111106)"/><path d="M180 670.9h340v88.63H180z" stroke="#000" stroke-width="2" fill="#fff"/><use xlink:href="#t" transform="matrix(1,0,0,1,192,682.9000000000001) translate(109.48796296296297 37.761111111111106)"/><path d="M180 784.53h340v88.64H180z" stroke="#000" stroke-width="2" fill="#fff"/><use xlink:href="#t" transform="matrix(1,0,0,1,192,796.5333333333336) translate(109.48796296296297 37.761111111111106)"/><path d="M656.25 557.27h240v60h-240z" stroke="#000" stroke-opacity="0" stroke-width="2" fill="#fff" fill-opacity="0"/><use xlink:href="#u" transform="matrix(1,0,0,1,661.25,562.2666666666665) translate(75.52561728395062 30.886111111111106)"/><path d="M656.25 765.45h240v60h-240z" stroke="#000" stroke-opacity="0" stroke-width="2" fill="#fff" fill-opacity="0"/><use xlink:href="#v" transform="matrix(1,0,0,1,661.25,770.45) translate(78.51327160493828 30.886111111111106)"/><path d="M1100 497.27h240v60h-240z" stroke="#000" stroke-opacity="0" stroke-width="2" fill="#fff" fill-opacity="0"/><use xlink:href="#w" transform="matrix(1,0,0,1,1105,502.26666666666654) translate(32.241975308642 30.886111111111106)"/><use xlink:href="#x" transform="matrix(1,0,0,1,1105,502.26666666666654) translate(99.31481481481482 30.886111111111106)"/><path d="M1100 605h240v60h-240z" stroke="#000" stroke-opacity="0" stroke-width="2" fill="#fff" fill-opacity="0"/><use xlink:href="#y" transform="matrix(1,0,0,1,1105,610) translate(53.603703703703715 30.886111111111106)"/><use xlink:href="#z" transform="matrix(1,0,0,1,1105,610) translate(98.86666666666667 30.886111111111106)"/><path d="M1100 715h240v60h-240z" stroke="#000" stroke-opacity="0" stroke-width="2" fill="#fff" fill-opacity="0"/><use xlink:href="#A" transform="matrix(1,0,0,1,1105,720) translate(7.556481481481512 30.886111111111106)"/><use xlink:href="#x" transform="matrix(1,0,0,1,1105,720) translate(124.00030864197531 30.886111111111106)"/><path d="M1100 825h240v60h-240z" stroke="#000" stroke-opacity="0" stroke-width="2" fill="#fff" fill-opacity="0"/><use xlink:href="#B" transform="matrix(1,0,0,1,1105,830) translate(3.149691358024711 30.886111111111106)"/><use xlink:href="#x" transform="matrix(1,0,0,1,1105,830) translate(128.4070987654321 30.886111111111106)"/><path d="M130 1140h180v60H130z" stroke="#000" stroke-opacity="0" stroke-width="2" fill="#fff" fill-opacity="0"/><g><use xlink:href="#C" transform="matrix(1,0,0,1,135,1145) translate(8.964197530864212 30.886111111111106)"/><use xlink:href="#D" transform="matrix(1,0,0,1,135,1145) translate(76.11172839506173 30.886111111111106)"/></g><path d="M350 1139h180v60H350z" stroke="#000" stroke-opacity="0" stroke-width="2" fill="#fff" fill-opacity="0"/><g><use xlink:href="#E" transform="matrix(1,0,0,1,355,1144) translate(35.7783950617284 30.886111111111106)"/></g><path d="M570 1140h180v60H570z" stroke="#000" stroke-opacity="0" stroke-width="2" fill="#fff" fill-opacity="0"/><g><use xlink:href="#F" transform="matrix(1,0,0,1,575,1145) translate(56.69197530864198 30.886111111111106)"/></g><path d="M790 1140h180v60H790z" stroke="#000" stroke-opacity="0" stroke-width="2" fill="#fff" fill-opacity="0"/><g><use xlink:href="#G" transform="matrix(1,0,0,1,795,1145) translate(20.205246913580254 30.886111111111106)"/><use xlink:href="#H" transform="matrix(1,0,0,1,795,1145) translate(73.83364197530864 30.886111111111106)"/><use xlink:href="#I" transform="matrix(1,0,0,1,795,1145) translate(90.19104938271605 30.886111111111106)"/></g><path d="M1010 1140h180v60h-180z" stroke="#000" stroke-opacity="0" stroke-width="2" fill="#fff" fill-opacity="0"/><g><use xlink:href="#J" transform="matrix(1,0,0,1,1015,1145) translate(27.599691358024707 30.886111111111106)"/></g><path d="M1230 1137.15h180v60h-180z" stroke="#000" stroke-opacity="0" stroke-width="2" fill="#fff" fill-opacity="0"/><g><use xlink:href="#K" transform="matrix(1,0,0,1,1235,1142.1470588235293) translate(29.76574074074076 30.886111111111106)"/></g><path d="M1450 1137.15h180v60h-180z" stroke="#000" stroke-opacity="0" stroke-width="2" fill="#fff" fill-opacity="0"/><g><use xlink:href="#L" transform="matrix(1,0,0,1,1455,1142.1470588235293) translate(26.143209876543224 30.886111111111106)"/></g><defs><path d="M33 0v-248h34V0H33" id="M"/><path d="M117-194c89-4 53 116 60 194h-32v-121c0-31-8-49-39-48C34-167 62-67 57 0H25l-1-190h30c1 10-1 24 2 32 11-22 29-35 61-36" id="N"/><path d="M59-47c-2 24 18 29 38 22v24C64 9 27 4 27-40v-127H5v-23h24l9-43h21v43h35v23H59v120" id="O"/><path d="M100-194c63 0 86 42 84 106H49c0 40 14 67 53 68 26 1 43-12 49-29l28 8c-11 28-37 45-77 45C44 4 14-33 15-96c1-61 26-98 85-98zm52 81c6-60-76-77-97-28-3 7-6 17-6 28h103" id="P"/><path d="M114-163C36-179 61-72 57 0H25l-1-190h30c1 12-1 29 2 39 6-27 23-49 58-41v29" id="Q"/><path d="M101-234c-31-9-42 10-38 44h38v23H63V0H32v-167H5v-23h27c-7-52 17-82 69-68v24" id="R"/><path d="M141-36C126-15 110 5 73 4 37 3 15-17 15-53c-1-64 63-63 125-63 3-35-9-54-41-54-24 1-41 7-42 31l-33-3c5-37 33-52 76-52 45 0 72 20 72 64v82c-1 20 7 32 28 27v20c-31 9-61-2-59-35zM48-53c0 20 12 33 32 33 41-3 63-29 60-74-43 2-92-5-92 41" id="S"/><path d="M96-169c-40 0-48 33-48 73s9 75 48 75c24 0 41-14 43-38l32 2c-6 37-31 61-74 61-59 0-76-41-82-99-10-93 101-131 147-64 4 7 5 14 7 22l-32 3c-4-21-16-35-41-35" id="T"/><g id="a"><use transform="matrix(0.07469135802469133,0,0,0.07469135802469133,0,0)" xlink:href="#M"/><use transform="matrix(0.07469135802469133,0,0,0.07469135802469133,7.4691358024691334,0)" xlink:href="#N"/><use transform="matrix(0.07469135802469133,0,0,0.07469135802469133,22.4074074074074,0)" xlink:href="#O"/><use transform="matrix(0.07469135802469133,0,0,0.07469135802469133,29.876543209876534,0)" xlink:href="#P"/><use transform="matrix(0.07469135802469133,0,0,0.07469135802469133,44.8148148148148,0)" xlink:href="#Q"/><use transform="matrix(0.07469135802469133,0,0,0.07469135802469133,53.70308641975307,0)" xlink:href="#R"/><use transform="matrix(0.07469135802469133,0,0,0.07469135802469133,61.1722222222222,0)" xlink:href="#S"/><use transform="matrix(0.07469135802469133,0,0,0.07469135802469133,76.11049382716047,0)" xlink:href="#T"/><use transform="matrix(0.07469135802469133,0,0,0.07469135802469133,89.55493827160491,0)" xlink:href="#P"/></g><path d="M240-174c0 40-23 61-54 70L253 0h-59l-57-94H76V0H24v-248c93 4 217-23 216 74zM76-134c48-2 112 12 112-38 0-48-66-32-112-35v73" id="U"/><path d="M185-48c-13 30-37 53-82 52C43 2 14-33 14-96s30-98 90-98c62 0 83 45 84 108H66c0 31 8 55 39 56 18 0 30-7 34-22zm-45-69c5-46-57-63-70-21-2 6-4 13-4 21h74" id="V"/><path d="M137-138c1-29-70-34-71-4 15 46 118 7 119 86 1 83-164 76-172 9l43-7c4 19 20 25 44 25 33 8 57-30 24-41C81-84 22-81 20-136c-2-80 154-74 161-7" id="W"/><path d="M115-3C79 11 28 4 28-45v-112H4v-33h27l15-45h31v45h36v33H77v99c-1 23 16 31 38 25v30" id="X"/><g id="c"><use transform="matrix(0.10555555555555528,0,0,0.10555555555555528,0,0)" xlink:href="#U"/><use transform="matrix(0.10555555555555528,0,0,0.10555555555555528,27.338888888888818,0)" xlink:href="#V"/><use transform="matrix(0.10555555555555528,0,0,0.10555555555555528,48.449999999999875,0)" xlink:href="#W"/><use transform="matrix(0.10555555555555528,0,0,0.10555555555555528,69.56111111111093,0)" xlink:href="#X"/></g><path d="M199 0l-22-63H83L61 0H9l90-248h61L250 0h-51zm-33-102l-36-108c-10 38-24 72-36 108h72" id="Y"/><path d="M24-248c93 1 206-16 204 79-1 75-69 88-152 82V0H24v-248zm52 121c47 0 100 7 100-41 0-47-54-39-100-39v80" id="Z"/><path d="M24 0v-248h52V0H24" id="aa"/><g id="d"><use transform="matrix(0.10555555555555528,0,0,0.10555555555555528,0,0)" xlink:href="#Y"/><use transform="matrix(0.10555555555555528,0,0,0.10555555555555528,27.338888888888818,0)" xlink:href="#Z"/><use transform="matrix(0.10555555555555528,0,0,0.10555555555555528,52.67222222222209,0)" xlink:href="#aa"/></g><path d="M67-125c0 53 21 87 73 88 37 1 54-22 65-47l45 17C233-25 199 4 140 4 58 4 20-42 15-125 8-235 124-281 211-232c18 10 29 29 36 50l-46 12c-8-25-30-41-62-41-52 0-71 34-72 86" id="ab"/><path d="M24 0v-248h52v208h133V0H24" id="ac"/><path d="M4 7l51-268h42L46 7H4" id="ad"/><path d="M110-194c64 0 96 36 96 99 0 64-35 99-97 99-61 0-95-36-95-99 0-62 34-99 96-99zm-1 164c35 0 45-28 45-65 0-40-10-65-43-65-34 0-45 26-45 65 0 36 10 65 43 65" id="ae"/><path d="M135-194c87-1 58 113 63 194h-50c-7-57 23-157-34-157-59 0-34 97-39 157H25l-1-190h47c2 12-1 28 3 38 12-26 28-41 61-42" id="af"/><path d="M25 0v-261h50V0H25" id="ag"/><g id="f"><use transform="matrix(0.10555555555555546,0,0,0.10555555555555546,0,0)" xlink:href="#ab"/><use transform="matrix(0.10555555555555546,0,0,0.10555555555555546,27.338888888888864,0)" xlink:href="#ac"/><use transform="matrix(0.10555555555555546,0,0,0.10555555555555546,50.455555555555506,0)" xlink:href="#aa"/><use transform="matrix(0.10555555555555546,0,0,0.10555555555555546,61.011111111111056,0)" xlink:href="#ad"/><use transform="matrix(0.10555555555555546,0,0,0.10555555555555546,71.56666666666659,0)" xlink:href="#ab"/><use transform="matrix(0.10555555555555546,0,0,0.10555555555555546,98.90555555555545,0)" xlink:href="#ae"/><use transform="matrix(0.10555555555555546,0,0,0.10555555555555546,122.02222222222211,0)" xlink:href="#af"/><use transform="matrix(0.10555555555555546,0,0,0.10555555555555546,145.13888888888874,0)" xlink:href="#W"/><use transform="matrix(0.10555555555555546,0,0,0.10555555555555546,166.24999999999983,0)" xlink:href="#ae"/><use transform="matrix(0.10555555555555546,0,0,0.10555555555555546,189.36666666666648,0)" xlink:href="#ag"/><use transform="matrix(0.10555555555555546,0,0,0.10555555555555546,199.92222222222202,0)" xlink:href="#V"/></g><path d="M169-182c-1-43-94-46-97-3 18 66 151 10 154 114 3 95-165 93-204 36-6-8-10-19-12-30l50-8c3 46 112 56 116 5-17-69-150-10-154-114-4-87 153-88 188-35 5 8 8 18 10 28" id="ah"/><path d="M220-157c-53 9-28 100-34 157h-49v-107c1-27-5-49-29-50C55-147 81-57 75 0H25l-1-190h47c2 12-1 28 3 38 10-53 101-56 108 0 13-22 24-43 59-42 82 1 51 116 57 194h-49v-107c-1-25-5-48-29-50" id="ai"/><path d="M133-34C117-15 103 5 69 4 32 3 11-16 11-54c-1-60 55-63 116-61 1-26-3-47-28-47-18 1-26 9-28 27l-52-2c7-38 36-58 82-57s74 22 75 68l1 82c-1 14 12 18 25 15v27c-30 8-71 5-69-32zm-48 3c29 0 43-24 42-57-32 0-66-3-65 30 0 17 8 27 23 27" id="aj"/><path d="M135-150c-39-12-60 13-60 57V0H25l-1-190h47c2 13-1 29 3 40 6-28 27-53 61-41v41" id="ak"/><g id="i"><use transform="matrix(0.1055555555555555,0,0,0.1055555555555555,0,0)" xlink:href="#ah"/><use transform="matrix(0.1055555555555555,0,0,0.1055555555555555,25.33333333333332,0)" xlink:href="#ai"/><use transform="matrix(0.1055555555555555,0,0,0.1055555555555555,59.11111111111108,0)" xlink:href="#aj"/><use transform="matrix(0.1055555555555555,0,0,0.1055555555555555,80.22222222222217,0)" xlink:href="#ak"/><use transform="matrix(0.1055555555555555,0,0,0.1055555555555555,94.99999999999994,0)" xlink:href="#X"/></g><path d="M190-63c-7 42-38 67-86 67-59 0-84-38-90-98-12-110 154-137 174-36l-49 2c-2-19-15-32-35-32-30 0-35 28-38 64-6 74 65 87 74 30" id="al"/><g id="j"><use transform="matrix(0.1055555555555555,0,0,0.1055555555555555,0,0)" xlink:href="#ab"/><use transform="matrix(0.1055555555555555,0,0,0.1055555555555555,27.338888888888874,0)" xlink:href="#ae"/><use transform="matrix(0.1055555555555555,0,0,0.1055555555555555,50.45555555555553,0)" xlink:href="#af"/><use transform="matrix(0.1055555555555555,0,0,0.1055555555555555,73.57222222222218,0)" xlink:href="#X"/><use transform="matrix(0.1055555555555555,0,0,0.1055555555555555,86.13333333333328,0)" xlink:href="#ak"/><use transform="matrix(0.1055555555555555,0,0,0.1055555555555555,100.91111111111105,0)" xlink:href="#aj"/><use transform="matrix(0.1055555555555555,0,0,0.1055555555555555,122.02222222222215,0)" xlink:href="#al"/><use transform="matrix(0.1055555555555555,0,0,0.1055555555555555,143.13333333333327,0)" xlink:href="#X"/><use transform="matrix(0.1055555555555555,0,0,0.1055555555555555,155.69444444444437,0)" xlink:href="#W"/></g><path d="M230 0l2-204L168 0h-37L68-204 70 0H24v-248h70l56 185 57-185h69V0h-46" id="am"/><g id="l"><use transform="matrix(0.1055555555555555,0,0,0.1055555555555555,0,0)" xlink:href="#am"/><use transform="matrix(0.1055555555555555,0,0,0.1055555555555555,31.561111111111096,0)" xlink:href="#ae"/><use transform="matrix(0.1055555555555555,0,0,0.1055555555555555,54.67777777777775,0)" xlink:href="#X"/><use transform="matrix(0.1055555555555555,0,0,0.1055555555555555,67.23888888888885,0)" xlink:href="#ae"/><use transform="matrix(0.1055555555555555,0,0,0.1055555555555555,90.3555555555555,0)" xlink:href="#ak"/></g><path d="M24-248c120-7 223 5 221 122C244-46 201 0 124 0H24v-248zM76-40c74 7 117-18 117-86 0-67-45-88-117-82v168" id="an"/><path d="M195 0l-88-114-31 24V0H24v-248h52v113l112-113h60L142-143 257 0h-62" id="ao"/><g id="m"><use transform="matrix(0.1055555555555555,0,0,0.1055555555555555,0,0)" xlink:href="#ah"/><use transform="matrix(0.1055555555555555,0,0,0.1055555555555555,25.33333333333332,0)" xlink:href="#an"/><use transform="matrix(0.1055555555555555,0,0,0.1055555555555555,52.672222222222196,0)" xlink:href="#ao"/></g><path d="M212-179c-10-28-35-45-73-45-59 0-87 40-87 99 0 60 29 101 89 101 43 0 62-24 78-52l27 14C228-24 195 4 139 4 59 4 22-46 18-125c-6-104 99-153 187-111 19 9 31 26 39 46" id="ap"/><path d="M100-194c62-1 85 37 85 99 1 63-27 99-86 99S16-35 15-95c0-66 28-99 85-99zM99-20c44 1 53-31 53-75 0-43-8-75-51-75s-53 32-53 75 10 74 51 75" id="aq"/><g id="n"><use transform="matrix(0.07469135802469135,0,0,0.07469135802469135,0,0)" xlink:href="#ap"/><use transform="matrix(0.07469135802469135,0,0,0.07469135802469135,19.34506172839506,0)" xlink:href="#aq"/><use transform="matrix(0.07469135802469135,0,0,0.07469135802469135,34.28333333333333,0)" xlink:href="#Q"/><use transform="matrix(0.07469135802469135,0,0,0.07469135802469135,43.1716049382716,0)" xlink:href="#P"/></g><path d="M210-169c-67 3-38 105-44 169h-31v-121c0-29-5-50-35-48C34-165 62-65 56 0H25l-1-190h30c1 10-1 24 2 32 10-44 99-50 107 0 11-21 27-35 58-36 85-2 47 119 55 194h-31v-121c0-29-5-49-35-48" id="ar"/><path d="M115-194c55 1 70 41 70 98S169 2 115 4C84 4 66-9 55-30l1 105H24l-1-265h31l2 30c10-21 28-34 59-34zm-8 174c40 0 45-34 45-75s-6-73-45-74c-42 0-51 32-51 76 0 43 10 73 51 73" id="as"/><path d="M135-143c-3-34-86-38-87 0 15 53 115 12 119 90S17 21 10-45l28-5c4 36 97 45 98 0-10-56-113-15-118-90-4-57 82-63 122-42 12 7 21 19 24 35" id="at"/><g id="o"><use transform="matrix(0.07469135802469135,0,0,0.07469135802469135,0,0)" xlink:href="#ap"/><use transform="matrix(0.07469135802469135,0,0,0.07469135802469135,19.34506172839506,0)" xlink:href="#aq"/><use transform="matrix(0.07469135802469135,0,0,0.07469135802469135,34.28333333333333,0)" xlink:href="#ar"/><use transform="matrix(0.07469135802469135,0,0,0.07469135802469135,56.61604938271604,0)" xlink:href="#as"/><use transform="matrix(0.07469135802469135,0,0,0.07469135802469135,71.55432098765431,0)" xlink:href="#aq"/><use transform="matrix(0.07469135802469135,0,0,0.07469135802469135,86.49259259259257,0)" xlink:href="#N"/><use transform="matrix(0.07469135802469135,0,0,0.07469135802469135,101.43086419753082,0)" xlink:href="#P"/><use transform="matrix(0.07469135802469135,0,0,0.07469135802469135,116.3691358024691,0)" xlink:href="#N"/><use transform="matrix(0.07469135802469135,0,0,0.07469135802469135,131.30740740740737,0)" xlink:href="#O"/><use transform="matrix(0.07469135802469135,0,0,0.07469135802469135,138.7765432098765,0)" xlink:href="#at"/></g><path d="M240 0l2-218c-23 76-54 145-80 218h-23L58-218 59 0H30v-248h44l77 211c21-75 51-140 76-211h43V0h-30" id="au"/><path d="M85-194c31 0 48 13 60 33l-1-100h32l1 261h-30c-2-10 0-23-3-31C134-8 116 4 85 4 32 4 16-35 15-94c0-66 23-100 70-100zm9 24c-40 0-46 34-46 75 0 40 6 74 45 74 42 0 51-32 51-76 0-42-9-74-50-73" id="av"/><path d="M84 4C-5 8 30-112 23-190h32v120c0 31 7 50 39 49 72-2 45-101 50-169h31l1 190h-30c-1-10 1-25-2-33-11 22-28 36-60 37" id="aw"/><path d="M24 0v-261h32V0H24" id="ax"/><g id="p"><use transform="matrix(0.07469135802469135,0,0,0.07469135802469135,0,0)" xlink:href="#au"/><use transform="matrix(0.07469135802469135,0,0,0.07469135802469135,22.33271604938271,0)" xlink:href="#aq"/><use transform="matrix(0.07469135802469135,0,0,0.07469135802469135,37.270987654320976,0)" xlink:href="#av"/><use transform="matrix(0.07469135802469135,0,0,0.07469135802469135,52.20925925925924,0)" xlink:href="#aw"/><use transform="matrix(0.07469135802469135,0,0,0.07469135802469135,67.1475308641975,0)" xlink:href="#ax"/><use transform="matrix(0.07469135802469135,0,0,0.07469135802469135,73.04814814814813,0)" xlink:href="#P"/><use transform="matrix(0.07469135802469135,0,0,0.07469135802469135,87.9864197530864,0)" xlink:href="#at"/></g><path d="M185-189c-5-48-123-54-124 2 14 75 158 14 163 119 3 78-121 87-175 55-17-10-28-26-33-46l33-7c5 56 141 63 141-1 0-78-155-14-162-118-5-82 145-84 179-34 5 7 8 16 11 25" id="ay"/><path d="M108 0H70L1-190h34L89-25l56-165h34" id="az"/><path d="M24-231v-30h32v30H24zM24 0v-190h32V0H24" id="aA"/><g id="q"><use transform="matrix(0.07469135802469133,0,0,0.07469135802469133,0,0)" xlink:href="#ay"/><use transform="matrix(0.07469135802469133,0,0,0.07469135802469133,17.92592592592592,0)" xlink:href="#P"/><use transform="matrix(0.07469135802469133,0,0,0.07469135802469133,32.86419753086419,0)" xlink:href="#Q"/><use transform="matrix(0.07469135802469133,0,0,0.07469135802469133,41.75246913580246,0)" xlink:href="#az"/><use transform="matrix(0.07469135802469133,0,0,0.07469135802469133,55.1969135802469,0)" xlink:href="#aA"/><use transform="matrix(0.07469135802469133,0,0,0.07469135802469133,61.097530864197516,0)" xlink:href="#T"/><use transform="matrix(0.07469135802469133,0,0,0.07469135802469133,74.54197530864195,0)" xlink:href="#P"/><use transform="matrix(0.07469135802469133,0,0,0.07469135802469133,89.48024691358022,0)" xlink:href="#at"/></g><path d="M186 0v-106H76V0H24v-248h52v99h110v-99h50V0h-50" id="aB"/><path d="M25-224v-37h50v37H25zM25 0v-190h50V0H25" id="aC"/><path d="M195-6C206 82 75 100 31 46c-4-6-6-13-8-21l49-6c3 16 16 24 34 25 40 0 42-37 40-79-11 22-30 35-61 35-53 0-70-43-70-97 0-56 18-96 73-97 30 0 46 14 59 34l2-30h47zm-90-29c32 0 41-27 41-63 0-35-9-62-40-62-32 0-39 29-40 63 0 36 9 62 39 62" id="aD"/><path d="M114-157C55-157 80-60 75 0H25v-261h50l-1 109c12-26 28-41 61-42 86-1 58 113 63 194h-50c-7-57 23-157-34-157" id="aE"/><path d="M231 0h-52l-39-155L100 0H48L-1-190h46L77-45c9-52 24-97 36-145h53l37 145 32-145h46" id="aF"/><path d="M123 10C108 53 80 86 19 72V37c35 8 53-11 59-39L3-190h52l48 148c12-52 28-100 44-148h51" id="aG"/><g id="r"><use transform="matrix(0.07469135802469135,0,0,0.07469135802469135,0,0)" xlink:href="#aB"/><use transform="matrix(0.07469135802469135,0,0,0.07469135802469135,19.34506172839506,0)" xlink:href="#aC"/><use transform="matrix(0.07469135802469135,0,0,0.07469135802469135,26.81419753086419,0)" xlink:href="#aD"/><use transform="matrix(0.07469135802469135,0,0,0.07469135802469135,43.1716049382716,0)" xlink:href="#aE"/><use transform="matrix(0.07469135802469135,0,0,0.07469135802469135,59.529012345679014,0)" xlink:href="#aF"/><use transform="matrix(0.07469135802469135,0,0,0.07469135802469135,80.44259259259258,0)" xlink:href="#aj"/><use transform="matrix(0.07469135802469135,0,0,0.07469135802469135,95.38086419753085,0)" xlink:href="#aG"/></g><g id="s"><use transform="matrix(0.07469135802469135,0,0,0.07469135802469135,0,0)" xlink:href="#Z"/><use transform="matrix(0.07469135802469135,0,0,0.07469135802469135,17.925925925925924,0)" xlink:href="#ak"/><use transform="matrix(0.07469135802469135,0,0,0.07469135802469135,28.38271604938271,0)" xlink:href="#ae"/><use transform="matrix(0.07469135802469135,0,0,0.07469135802469135,44.740123456790116,0)" xlink:href="#X"/><use transform="matrix(0.07469135802469135,0,0,0.07469135802469135,53.62839506172838,0)" xlink:href="#ae"/><use transform="matrix(0.07469135802469135,0,0,0.07469135802469135,69.98580246913579,0)" xlink:href="#al"/><use transform="matrix(0.07469135802469135,0,0,0.07469135802469135,84.92407407407406,0)" xlink:href="#ae"/><use transform="matrix(0.07469135802469135,0,0,0.07469135802469135,101.28148148148146,0)" xlink:href="#ag"/></g><path d="M30-248c87 1 191-15 191 75 0 78-77 80-158 76V0H30v-248zm33 125c57 0 124 11 124-50 0-59-68-47-124-48v98" id="aH"/><g id="t"><use transform="matrix(0.07469135802469135,0,0,0.07469135802469135,0,0)" xlink:href="#aH"/><use transform="matrix(0.07469135802469135,0,0,0.07469135802469135,17.925925925925924,0)" xlink:href="#Q"/><use transform="matrix(0.07469135802469135,0,0,0.07469135802469135,26.81419753086419,0)" xlink:href="#aq"/><use transform="matrix(0.07469135802469135,0,0,0.07469135802469135,41.75246913580246,0)" xlink:href="#T"/><use transform="matrix(0.07469135802469135,0,0,0.07469135802469135,55.19691358024689,0)" xlink:href="#P"/><use transform="matrix(0.07469135802469135,0,0,0.07469135802469135,70.13518518518516,0)" xlink:href="#at"/><use transform="matrix(0.07469135802469135,0,0,0.07469135802469135,83.57962962962962,0)" xlink:href="#at"/></g><path d="M135-194c52 0 70 43 70 98 0 56-19 99-73 100-30 1-46-15-58-35L72 0H24l1-261h50v104c11-23 29-37 60-37zM114-30c31 0 40-27 40-66 0-37-7-63-39-63s-41 28-41 65c0 36 8 64 40 64" id="aI"/><path d="M135-194c53 0 70 44 70 98 0 56-19 98-73 100-31 1-45-17-59-34 3 33 2 69 2 105H25l-1-265h48c2 10 0 23 3 31 11-24 29-35 60-35zM114-30c33 0 39-31 40-66 0-38-9-64-40-64-56 0-55 130 0 130" id="aJ"/><path d="M182-182c0 78-84 86-111 141h115V0H12c-6-101 99-100 120-180 1-22-12-31-33-32-23 0-32 14-35 34l-49-3c5-45 32-70 84-70 51 0 83 22 83 69" id="aK"/><g id="u"><use transform="matrix(0.07469135802469135,0,0,0.07469135802469135,0,0)" xlink:href="#ag"/><use transform="matrix(0.07469135802469135,0,0,0.07469135802469135,7.469135802469134,0)" xlink:href="#aC"/><use transform="matrix(0.07469135802469135,0,0,0.07469135802469135,14.938271604938269,0)" xlink:href="#aI"/><use transform="matrix(0.07469135802469135,0,0,0.07469135802469135,31.295679012345673,0)" xlink:href="#aJ"/><use transform="matrix(0.07469135802469135,0,0,0.07469135802469135,47.65308641975308,0)" xlink:href="#aK"/><use transform="matrix(0.07469135802469135,0,0,0.07469135802469135,62.591358024691345,0)" xlink:href="#aJ"/></g><g id="v"><use transform="matrix(0.07469135802469135,0,0,0.07469135802469135,0,0)" xlink:href="#aD"/><use transform="matrix(0.07469135802469135,0,0,0.07469135802469135,16.357407407407404,0)" xlink:href="#U"/><use transform="matrix(0.07469135802469135,0,0,0.07469135802469135,35.70246913580246,0)" xlink:href="#Z"/><use transform="matrix(0.07469135802469135,0,0,0.07469135802469135,53.62839506172838,0)" xlink:href="#ab"/></g><g id="w"><use transform="matrix(0.07469135802469135,0,0,0.07469135802469135,0,0)" xlink:href="#au"/><use transform="matrix(0.07469135802469135,0,0,0.07469135802469135,22.33271604938271,0)" xlink:href="#aH"/><use transform="matrix(0.07469135802469135,0,0,0.07469135802469135,40.258641975308635,0)" xlink:href="#ap"/></g><g id="x"><use transform="matrix(0.07469135802469135,0,0,0.07469135802469135,0,0)" xlink:href="#aH"/><use transform="matrix(0.07469135802469135,0,0,0.07469135802469135,17.925925925925924,0)" xlink:href="#Q"/><use transform="matrix(0.07469135802469135,0,0,0.07469135802469135,26.81419753086419,0)" xlink:href="#aq"/><use transform="matrix(0.07469135802469135,0,0,0.07469135802469135,41.75246913580246,0)" xlink:href="#O"/><use transform="matrix(0.07469135802469135,0,0,0.07469135802469135,49.22160493827159,0)" xlink:href="#aq"/><use transform="matrix(0.07469135802469135,0,0,0.07469135802469135,64.15987654320986,0)" xlink:href="#T"/><use transform="matrix(0.07469135802469135,0,0,0.07469135802469135,77.6043209876543,0)" xlink:href="#aq"/><use transform="matrix(0.07469135802469135,0,0,0.07469135802469135,92.54259259259258,0)" xlink:href="#ax"/></g><path d="M63-220v92h138v28H63V0H30v-248h175v28H63" id="aL"/><path d="M30 0v-248h33v221h125V0H30" id="aM"/><g id="y"><use transform="matrix(0.07469135802469135,0,0,0.07469135802469135,0,0)" xlink:href="#aL"/><use transform="matrix(0.07469135802469135,0,0,0.07469135802469135,16.357407407407404,0)" xlink:href="#M"/><use transform="matrix(0.07469135802469135,0,0,0.07469135802469135,23.82654320987654,0)" xlink:href="#aM"/></g><path d="M160-131c35 5 61 23 61 61C221 17 115-2 30 0v-248c76 3 177-17 177 60 0 33-19 50-47 57zm-97-11c50-1 110 9 110-42 0-47-63-36-110-37v79zm0 115c55-2 124 14 124-45 0-56-70-42-124-44v89" id="aN"/><path d="M177-190C167-65 218 103 67 71c-23-6-38-20-44-43l32-5c15 47 100 32 89-28v-30C133-14 115 1 83 1 29 1 15-40 15-95c0-56 16-97 71-98 29-1 48 16 59 35 1-10 0-23 2-32h30zM94-22c36 0 50-32 50-73 0-42-14-75-50-75-39 0-46 34-46 75s6 73 46 73" id="aO"/><g id="z"><use transform="matrix(0.07469135802469135,0,0,0.07469135802469135,0,0)" xlink:href="#aN"/><use transform="matrix(0.07469135802469135,0,0,0.07469135802469135,17.925925925925924,0)" xlink:href="#Q"/><use transform="matrix(0.07469135802469135,0,0,0.07469135802469135,26.81419753086419,0)" xlink:href="#aA"/><use transform="matrix(0.07469135802469135,0,0,0.07469135802469135,32.71481481481481,0)" xlink:href="#av"/><use transform="matrix(0.07469135802469135,0,0,0.07469135802469135,47.65308641975308,0)" xlink:href="#aO"/><use transform="matrix(0.07469135802469135,0,0,0.07469135802469135,62.591358024691345,0)" xlink:href="#P"/></g><g id="A"><use transform="matrix(0.07469135802469135,0,0,0.07469135802469135,0,0)" xlink:href="#au"/><use transform="matrix(0.07469135802469135,0,0,0.07469135802469135,22.33271604938271,0)" xlink:href="#P"/><use transform="matrix(0.07469135802469135,0,0,0.07469135802469135,37.270987654320976,0)" xlink:href="#at"/><use transform="matrix(0.07469135802469135,0,0,0.07469135802469135,50.71543209876541,0)" xlink:href="#at"/><use transform="matrix(0.07469135802469135,0,0,0.07469135802469135,64.15987654320986,0)" xlink:href="#S"/><use transform="matrix(0.07469135802469135,0,0,0.07469135802469135,79.09814814814814,0)" xlink:href="#aO"/><use transform="matrix(0.07469135802469135,0,0,0.07469135802469135,94.03641975308639,0)" xlink:href="#P"/></g><path d="M30-248c118-7 216 8 213 122C240-48 200 0 122 0H30v-248zM63-27c89 8 146-16 146-99s-60-101-146-95v194" id="aP"/><path d="M179-190L93 31C79 59 56 82 12 73V49c39 6 53-20 64-50L1-190h34L92-34l54-156h33" id="aQ"/><g id="B"><use transform="matrix(0.07469135802469135,0,0,0.07469135802469135,0,0)" xlink:href="#aP"/><use transform="matrix(0.07469135802469135,0,0,0.07469135802469135,19.34506172839506,0)" xlink:href="#aA"/><use transform="matrix(0.07469135802469135,0,0,0.07469135802469135,25.245679012345676,0)" xlink:href="#at"/><use transform="matrix(0.07469135802469135,0,0,0.07469135802469135,38.69012345679012,0)" xlink:href="#T"/><use transform="matrix(0.07469135802469135,0,0,0.07469135802469135,52.13456790123456,0)" xlink:href="#aq"/><use transform="matrix(0.07469135802469135,0,0,0.07469135802469135,67.07283950617283,0)" xlink:href="#az"/><use transform="matrix(0.07469135802469135,0,0,0.07469135802469135,80.51728395061727,0)" xlink:href="#P"/><use transform="matrix(0.07469135802469135,0,0,0.07469135802469135,95.45555555555553,0)" xlink:href="#Q"/><use transform="matrix(0.07469135802469135,0,0,0.07469135802469135,104.34382716049382,0)" xlink:href="#aQ"/></g><g id="C"><use transform="matrix(0.07469135802469135,0,0,0.07469135802469135,0,0)" xlink:href="#M"/><use transform="matrix(0.07469135802469135,0,0,0.07469135802469135,7.469135802469134,0)" xlink:href="#aH"/><use transform="matrix(0.07469135802469135,0,0,0.07469135802469135,25.395061728395056,0)" xlink:href="#aL"/><use transform="matrix(0.07469135802469135,0,0,0.07469135802469135,41.75246913580246,0)" xlink:href="#ay"/></g><g id="D"><use transform="matrix(0.07469135802469135,0,0,0.07469135802469135,0,0)" xlink:href="#ap"/><use transform="matrix(0.07469135802469135,0,0,0.07469135802469135,19.34506172839506,0)" xlink:href="#ax"/><use transform="matrix(0.07469135802469135,0,0,0.07469135802469135,25.245679012345676,0)" xlink:href="#aw"/><use transform="matrix(0.07469135802469135,0,0,0.07469135802469135,40.18395061728394,0)" xlink:href="#at"/><use transform="matrix(0.07469135802469135,0,0,0.07469135802469135,53.62839506172838,0)" xlink:href="#O"/><use transform="matrix(0.07469135802469135,0,0,0.07469135802469135,61.09753086419751,0)" xlink:href="#P"/><use transform="matrix(0.07469135802469135,0,0,0.07469135802469135,76.03580246913579,0)" xlink:href="#Q"/></g><g id="E"><use transform="matrix(0.07469135802469135,0,0,0.07469135802469135,0,0)" xlink:href="#ap"/><use transform="matrix(0.07469135802469135,0,0,0.07469135802469135,19.34506172839506,0)" xlink:href="#aq"/><use transform="matrix(0.07469135802469135,0,0,0.07469135802469135,34.28333333333333,0)" xlink:href="#at"/><use transform="matrix(0.07469135802469135,0,0,0.07469135802469135,47.72777777777778,0)" xlink:href="#ar"/><use transform="matrix(0.07469135802469135,0,0,0.07469135802469135,70.06049382716049,0)" xlink:href="#aq"/><use transform="matrix(0.07469135802469135,0,0,0.07469135802469135,84.99876543209875,0)" xlink:href="#at"/></g><path d="M197 0v-115H63V0H30v-248h33v105h134v-105h34V0h-34" id="aR"/><path d="M190 0L58-211 59 0H30v-248h39L202-35l-2-213h31V0h-41" id="aS"/><g id="F"><use transform="matrix(0.07469135802469135,0,0,0.07469135802469135,0,0)" xlink:href="#aR"/><use transform="matrix(0.07469135802469135,0,0,0.07469135802469135,19.34506172839506,0)" xlink:href="#aS"/><use transform="matrix(0.07469135802469135,0,0,0.07469135802469135,38.69012345679012,0)" xlink:href="#ay"/></g><g id="G"><use transform="matrix(0.07469135802469135,0,0,0.07469135802469135,0,0)" xlink:href="#aP"/><use transform="matrix(0.07469135802469135,0,0,0.07469135802469135,19.34506172839506,0)" xlink:href="#M"/><use transform="matrix(0.07469135802469135,0,0,0.07469135802469135,26.81419753086419,0)" xlink:href="#aP"/></g><path d="M16-82v-28h88v28H16" id="aT"/><use transform="matrix(0.07469135802469135,0,0,0.07469135802469135,0,0)" xlink:href="#aT" id="H"/><path d="M266 0h-40l-56-210L115 0H75L2-248h35L96-30l15-64 43-154h32l59 218 59-218h35" id="aU"/><path d="M126-127c33 6 58 20 58 59 0 88-139 92-164 29-3-8-5-16-6-25l32-3c6 27 21 44 54 44 32 0 52-15 52-46 0-38-36-46-79-43v-28c39 1 72-4 72-42 0-27-17-43-46-43-28 0-47 15-49 41l-32-3c6-42 35-63 81-64 48-1 79 21 79 65 0 36-21 52-52 59" id="aV"/><g id="I"><use transform="matrix(0.07469135802469135,0,0,0.07469135802469135,0,0)" xlink:href="#aU"/><use transform="matrix(0.07469135802469135,0,0,0.07469135802469135,25.320370370370366,0)" xlink:href="#aV"/><use transform="matrix(0.07469135802469135,0,0,0.07469135802469135,40.258641975308635,0)" xlink:href="#ap"/></g><path d="M143 4C61 4 22-44 18-125c-5-107 100-154 193-111 17 8 29 25 37 43l-32 9c-13-25-37-40-76-40-61 0-88 39-88 99 0 61 29 100 91 101 35 0 62-11 79-27v-45h-74v-28h105v86C228-13 192 4 143 4" id="aW"/><path d="M115-194c53 0 69 39 70 98 0 66-23 100-70 100C84 3 66-7 56-30L54 0H23l1-261h32v101c10-23 28-34 59-34zm-8 174c40 0 45-34 45-75 0-40-5-75-45-74-42 0-51 32-51 76 0 43 10 73 51 73" id="aX"/><g id="J"><use transform="matrix(0.07469135802469135,0,0,0.07469135802469135,0,0)" xlink:href="#aW"/><use transform="matrix(0.07469135802469135,0,0,0.07469135802469135,20.913580246913575,0)" xlink:href="#aq"/><use transform="matrix(0.07469135802469135,0,0,0.07469135802469135,35.85185185185185,0)" xlink:href="#ar"/><use transform="matrix(0.07469135802469135,0,0,0.07469135802469135,58.18456790123456,0)" xlink:href="#aq"/><use transform="matrix(0.07469135802469135,0,0,0.07469135802469135,73.12283950617282,0)" xlink:href="#aX"/><use transform="matrix(0.07469135802469135,0,0,0.07469135802469135,88.0611111111111,0)" xlink:href="#aA"/><use transform="matrix(0.07469135802469135,0,0,0.07469135802469135,93.9617283950617,0)" xlink:href="#ax"/><use transform="matrix(0.07469135802469135,0,0,0.07469135802469135,99.86234567901234,0)" xlink:href="#P"/></g><path d="M106-169C34-169 62-67 57 0H25v-261h32l-1 103c12-21 28-36 61-36 89 0 53 116 60 194h-32v-121c2-32-8-49-39-48" id="aY"/><path d="M140-251c81 0 123 46 123 126C263-53 228-8 163 1c7 30 30 48 69 40v23c-55 16-95-15-103-61C56-3 17-48 17-125c0-80 42-126 123-126zm0 227c63 0 89-41 89-101s-29-99-89-99c-61 0-89 39-89 99S79-25 140-24" id="aZ"/><g id="K"><use transform="matrix(0.07469135802469135,0,0,0.07469135802469135,0,0)" xlink:href="#aW"/><use transform="matrix(0.07469135802469135,0,0,0.07469135802469135,20.913580246913575,0)" xlink:href="#Q"/><use transform="matrix(0.07469135802469135,0,0,0.07469135802469135,29.801851851851843,0)" xlink:href="#S"/><use transform="matrix(0.07469135802469135,0,0,0.07469135802469135,44.740123456790116,0)" xlink:href="#as"/><use transform="matrix(0.07469135802469135,0,0,0.07469135802469135,59.678395061728374,0)" xlink:href="#aY"/><use transform="matrix(0.07469135802469135,0,0,0.07469135802469135,74.61666666666665,0)" xlink:href="#aZ"/><use transform="matrix(0.07469135802469135,0,0,0.07469135802469135,95.53024691358021,0)" xlink:href="#aM"/></g><g id="L"><use transform="matrix(0.07469135802469135,0,0,0.07469135802469135,0,0)" xlink:href="#aN"/><use transform="matrix(0.07469135802469135,0,0,0.07469135802469135,17.925925925925924,0)" xlink:href="#aA"/><use transform="matrix(0.07469135802469135,0,0,0.07469135802469135,23.82654320987654,0)" xlink:href="#aO"/><use transform="matrix(0.07469135802469135,0,0,0.07469135802469135,38.764814814814805,0)" xlink:href="#aP"/><use transform="matrix(0.07469135802469135,0,0,0.07469135802469135,58.10987654320988,0)" xlink:href="#aA"/><use transform="matrix(0.07469135802469135,0,0,0.07469135802469135,64.01049382716049,0)" xlink:href="#as"/><use transform="matrix(0.07469135802469135,0,0,0.07469135802469135,78.94876543209875,0)" xlink:href="#as"/><use transform="matrix(0.07469135802469135,0,0,0.07469135802469135,93.88703703703702,0)" xlink:href="#P"/><use transform="matrix(0.07469135802469135,0,0,0.07469135802469135,108.8253086419753,0)" xlink:href="#Q"/></g></defs></g></svg>